<svg xmlns="http://www.w3.org/2000/svg" xmlns:xlink="http://www.w3.org/1999/xlink" viewBox="0 0 1000 1000"><defs><style>.cls-1{fill:url(#linear-gradient);}.cls-2{fill:#fff;}.cls-3{fill:url(#linear-gradient-2);}.cls-4{fill:url(#linear-gradient-3);}</style><linearGradient id="linear-gradient" x1="500" y1="0.3" x2="500" y2="999.7" gradientUnits="userSpaceOnUse"><stop offset="0" stop-color="#f39"/><stop offset="0.5" stop-color="#f06798"/><stop offset="1" stop-color="#ffcc32"/></linearGradient><linearGradient id="linear-gradient-2" x1="500" y1="0.3" x2="500" y2="999.7" xlink:href="#linear-gradient"/><linearGradient id="linear-gradient-3" x1="494.85" y1="0.3" x2="494.85" y2="999.7" xlink:href="#linear-gradient"/></defs><g id="BG"><path class="cls-1" d="M500,.3C776,.3,999.7,224,999.7,500S776,999.7,500,999.7.3,776,.3,500,224,.3,500,.3ZM917.72,500c0-230.7-187-417.72-417.72-417.72S82.28,269.3,82.28,500,269.3,917.72,500,917.72,917.72,730.7,917.72,500Z"/><path class="cls-2" d="M500,82.28c230.7,0,417.72,187,417.72,417.72S730.7,917.72,500,917.72,82.28,730.7,82.28,500,269.3,82.28,500,82.28ZM874,500c0-206.54-167.42-374-374-374S126,293.46,126,500,293.47,874,500,874,874,706.54,874,500Z"/><path class="cls-3" d="M500,126c206.54,0,374,167.42,374,374S706.54,874,500,874,126,706.54,126,500,293.47,126,500,126Zm255.86,596V544.52a9.73,9.73,0,0,0-9.73-9.72H717.47a9.73,9.73,0,0,0-9.73,9.72V558.4a.25.25,0,0,1-.4.2,118.48,118.48,0,0,0-47.71-21.4,123.73,123.73,0,0,0-24.1-2.4H621.25a9.72,9.72,0,0,0-9.73,9.72V722.06a9.73,9.73,0,0,0,9.73,9.73h28.66a9.73,9.73,0,0,0,9.72-9.73V587.4a.27.27,0,0,1,.36-.25,72.3,72.3,0,0,1,47.75,68v66.94a9.73,9.73,0,0,0,9.73,9.73h28.66A9.73,9.73,0,0,0,755.86,722.06ZM687.08,480V456.07a87,87,0,0,0-22.24-58.22.29.29,0,0,1,0-.35,87.63,87.63,0,0,0-65.43-146H522.48a10.63,10.63,0,0,0-10.63,10.63v37.15a10.63,10.63,0,0,0,10.63,10.63h76.93a29.29,29.29,0,0,1,29.14,31.93c-1.37,15.35-15.26,26.58-30.68,26.58H522.48A10.63,10.63,0,0,0,511.85,379V480a10.63,10.63,0,0,0,10.63,10.63h37.15A10.63,10.63,0,0,0,570.26,480V427.1a.27.27,0,0,1,.28-.28h28.59a29.53,29.53,0,0,1,29.53,29.54V480a10.63,10.63,0,0,0,10.63,10.63h37.16A10.63,10.63,0,0,0,687.08,480ZM484.57,734.35A101.63,101.63,0,0,0,595.85,622.77c-4.76-47.49-43.21-85.87-90.72-90.54A101.56,101.56,0,0,0,393.87,643.75C398.64,691.26,437.06,729.67,484.57,734.35ZM478,480V262.17a10.63,10.63,0,0,0-10.63-10.63H430.18a10.62,10.62,0,0,0-10.62,10.63v164.6a.29.29,0,0,1-.39.27,87.55,87.55,0,0,1-58-82.52V262.17a10.63,10.63,0,0,0-10.63-10.63H313.25a10.63,10.63,0,0,0-10.62,10.63v82.35A146.45,146.45,0,0,0,419.56,487.67a149,149,0,0,0,29.15,2.92h18.62A10.62,10.62,0,0,0,478,480Zm-100,242.09V692.88a9.74,9.74,0,0,0-9.74-9.74h-36.3a49.87,49.87,0,0,1-49.66-54.61c2.42-25.85,25.13-45.09,51.1-45.09h34.86a9.74,9.74,0,0,0,9.74-9.74V544.53a9.74,9.74,0,0,0-9.74-9.74h-36.3a98.53,98.53,0,0,0-98.46,102c1.86,53.4,47.35,95,100.77,95h34A9.74,9.74,0,0,0,377.91,722.06Z"/><path class="cls-2" d="M755.86,544.52V722.06a9.73,9.73,0,0,1-9.73,9.73H717.47a9.73,9.73,0,0,1-9.73-9.73V655.12a72.3,72.3,0,0,0-47.75-68,.27.27,0,0,0-.36.25V722.06a9.73,9.73,0,0,1-9.72,9.73H621.25a9.73,9.73,0,0,1-9.73-9.73V544.52a9.72,9.72,0,0,1,9.73-9.72h14.28a123.73,123.73,0,0,1,24.1,2.4,118.48,118.48,0,0,1,47.71,21.4.25.25,0,0,0,.4-.2V544.52a9.73,9.73,0,0,1,9.73-9.72h28.66A9.73,9.73,0,0,1,755.86,544.52Z"/><path class="cls-2" d="M687.08,456.07V480a10.63,10.63,0,0,1-10.63,10.63H639.29A10.63,10.63,0,0,1,628.66,480V456.36a29.53,29.53,0,0,0-29.53-29.54H570.54a.27.27,0,0,0-.28.28V480a10.63,10.63,0,0,1-10.63,10.63H522.48A10.63,10.63,0,0,1,511.85,480V379a10.63,10.63,0,0,1,10.63-10.63h75.39c15.42,0,29.31-11.23,30.68-26.58a29.29,29.29,0,0,0-29.14-31.93H522.48a10.63,10.63,0,0,1-10.63-10.63V262.12a10.63,10.63,0,0,1,10.63-10.63h76.93a87.66,87.66,0,0,1,65.43,146,.29.29,0,0,0,0,.35A87,87,0,0,1,687.08,456.07Z"/><path class="cls-2" d="M595.85,622.77A101.63,101.63,0,0,1,484.57,734.35c-47.51-4.68-85.93-43.09-90.7-90.6A101.56,101.56,0,0,1,505.13,532.23C552.64,536.9,591.09,575.28,595.85,622.77ZM546,638.32a51.39,51.39,0,0,0-56-56.23c-22.83,2.1-42,19.71-45.78,42.34A51.49,51.49,0,0,0,503.49,684C526.14,680.31,543.8,661.17,546,638.32Z"/><path class="cls-4" d="M490,582.09a51.39,51.39,0,0,1,56,56.23c-2.19,22.85-19.85,42-42.5,45.69a51.49,51.49,0,0,1-59.28-59.58C448,601.8,467.16,584.19,490,582.09Z"/><path class="cls-2" d="M478,262.17V480a10.62,10.62,0,0,1-10.63,10.62H448.71a149,149,0,0,1-29.15-2.92A146.45,146.45,0,0,1,302.63,344.52V262.17a10.63,10.63,0,0,1,10.62-10.63h37.27a10.63,10.63,0,0,1,10.63,10.63v82.35a87.55,87.55,0,0,0,58,82.52.29.29,0,0,0,.39-.27V262.17a10.62,10.62,0,0,1,10.62-10.63h37.15A10.63,10.63,0,0,1,478,262.17Z"/><path class="cls-2" d="M377.91,692.88v29.18a9.74,9.74,0,0,1-9.74,9.73h-34c-53.42,0-98.91-41.56-100.77-95a98.53,98.53,0,0,1,98.46-102h36.3a9.74,9.74,0,0,1,9.74,9.74V573.7a9.74,9.74,0,0,1-9.74,9.74H333.31c-26,0-48.68,19.24-51.1,45.09a49.87,49.87,0,0,0,49.66,54.61h36.3A9.74,9.74,0,0,1,377.91,692.88Z"/></g></svg>